<svg xmlns="http://www.w3.org/2000/svg" viewBox="0 0 305.41 136.31"><defs><style>.cls-1{fill:#fff;}</style></defs><g id="Layer_2" data-name="Layer 2"><g id="Layer_1-2" data-name="Layer 1"><path class="cls-1" d="M38.33,23.59l8.93-1.74c.43-.08.79-.15.79-.73a21.13,21.13,0,0,0-.94-8.82,9.64,9.64,0,0,0-5.54-5.76,18,18,0,0,0-6.41-.91,39.61,39.61,0,0,0-8.71,1c-.79.15-1.59.52-2.38.68a27.79,27.79,0,0,0-8,3.35,19.55,19.55,0,0,0-7.92,8.53A24.49,24.49,0,0,0,5.42,29,62,62,0,0,0,5.57,42.2,24.4,24.4,0,0,0,8.3,51.39a11.35,11.35,0,0,0,6,5,20.48,20.48,0,0,0,9.36.84,41.62,41.62,0,0,0,12.1-3.14c4.53-2,8.13-5,10.15-9.75a25.87,25.87,0,0,0,1.87-7,55,55,0,0,0,.07-9.16c-.07-.85-.07-.85-.93-.68l-20.6,4c-.93.18-.93.18-.93,1.05V39.5c0,.87,0,.87.93.68l9.29-1.8a4.68,4.68,0,0,1,1.37-.2,4.52,4.52,0,0,0-.07.88,7.64,7.64,0,0,1-4,6.32,18.19,18.19,0,0,1-4.11,1.51,19.19,19.19,0,0,1-4,.57,8.54,8.54,0,0,1-4.17-.63c-2.09-1-3-2.86-3.6-5.06-.8-3.08-.72-6.41-.87-9.62,0-.94.15-1.9.22-2.92a19,19,0,0,1,1.44-6.48,10,10,0,0,1,3.74-4.61,16.83,16.83,0,0,1,4.54-2,15.49,15.49,0,0,1,7.34-.42,4.79,4.79,0,0,1,3.89,4.06,9.86,9.86,0,0,1,.15,2.93C37.39,23.7,37.47,23.76,38.33,23.59Z" transform="translate(0 0)"/><path class="cls-1" d="M90,12.75a10.61,10.61,0,0,0-3.68-5.7c-2.66-1.85-6-2.08-9.43-1.91A31.46,31.46,0,0,0,72.53,6a26,26,0,0,0-9.15,2.85,16.33,16.33,0,0,0-7.56,8.39A27.47,27.47,0,0,0,54.09,25,63.44,63.44,0,0,0,54,33.14a30.39,30.39,0,0,0,2.09,9.31,9.44,9.44,0,0,0,6.7,5.62,19.43,19.43,0,0,0,8.28,0,35.38,35.38,0,0,0,8.28-2.19,18,18,0,0,0,7.13-5.34c2.3-2.9,3.24-6.18,4-9.56a47.56,47.56,0,0,0,.65-9.56A28.5,28.5,0,0,0,90,12.75ZM78.58,35.5a7.83,7.83,0,0,1-4.83,3.38l-2.09.41c-2.73.53-4.68-.32-5.83-2.61a14.41,14.41,0,0,1-1.22-5.09,39.22,39.22,0,0,1-.15-6.53A27.5,27.5,0,0,1,65,20.92c.86-3.27,2.59-5.33,6.19-6.18a14.36,14.36,0,0,1,4.18-.59,4.36,4.36,0,0,1,4.46,3.16,16.44,16.44,0,0,1,.65,5c0,.65.07,1.35.07,2a24.2,24.2,0,0,1-.36,6.05A11.7,11.7,0,0,1,78.58,35.5Z" transform="translate(0 0)"/><path class="cls-1" d="M45.75,85.31c-2.09-4.28-6-5.75-10.8-5.75a33.09,33.09,0,0,0-3.82.16c-1.23.1-2.45.26-3.6.42a40.62,40.62,0,0,0-4.9,1.31,27.91,27.91,0,0,0-6.69,2.74,16.3,16.3,0,0,0-3.68,2.59A22,22,0,0,0,6.07,97.84a58.46,58.46,0,0,0-1,8.48,39.91,39.91,0,0,0,.07,5,58.46,58.46,0,0,0,.58,6.08A20.55,20.55,0,0,0,9,126,11.31,11.31,0,0,0,16,130.69a26,26,0,0,0,10.22,0,40.26,40.26,0,0,0,4.83-1.15,24.41,24.41,0,0,0,5-1.92,20.44,20.44,0,0,0,7-5.69,22.6,22.6,0,0,0,3-4.9c.21-.54.21-.76-.29-1-2.67-1.14-5.4-2.26-8.07-3.4a.24.24,0,0,1-.14.1,7.55,7.55,0,0,1-.36.79,13.59,13.59,0,0,1-5.54,5.83,25.36,25.36,0,0,1-2.89,1.21,11.43,11.43,0,0,1-4.89.74,6.62,6.62,0,0,1-6.7-5.11,35.4,35.4,0,0,1-1.15-8.78c0-1.44,0-2.88.14-4.28a24.13,24.13,0,0,1,1.16-6.27,9.49,9.49,0,0,1,2.73-4.13,12.37,12.37,0,0,1,5.33-2.69,26.86,26.86,0,0,1,4.75-.71c3.68-.06,6.2,2,6.34,5.83.07,1.28,0,2.59,0,3.88-.07.81,0,.8.79.64L46.18,98c.86-.17.86-.17.93-1.19,0-1.94.15-3.92,0-5.83A16.28,16.28,0,0,0,45.75,85.31Z" transform="translate(0 0)"/><path class="cls-1" d="M86.57,106.17c-.07-4.3-.07-8.69,0-13A35.21,35.21,0,0,0,86.14,87c-.72-3.82-2.74-6.31-6.48-7.09a18.92,18.92,0,0,0-5.84-.24,38,38,0,0,0-11.59,2.83,20.16,20.16,0,0,0-5,3.14A12.69,12.69,0,0,0,53,95a35.57,35.57,0,0,0,.15,4c.14,1.12-.07,1.09,1.15.85,1.44-.2,2.95-.57,4.39-.85L63.6,98V96c0-.72.07-1.45.14-2.19a5.52,5.52,0,0,1,3.75-4.54,13.34,13.34,0,0,1,4.39-.78c1.73,0,3.1.55,3.53,2.26a30.08,30.08,0,0,1,.79,8.06c0,.57-.29.7-.72.79-.72.14-1.37.19-2.09.33a66.5,66.5,0,0,0-10.3,2.43A24.57,24.57,0,0,0,57.26,105a9.45,9.45,0,0,0-4.39,5.82,17.65,17.65,0,0,0-.14,7.3,6.75,6.75,0,0,0,1.58,3.29c2.16,2.18,5,2.62,8.21,2.22a51.07,51.07,0,0,0,5.62-1.09,15.39,15.39,0,0,0,8-4.86,2.8,2.8,0,0,1,1.08-1V119c0,.94,0,.94.86.77l8.28-1.61a.68.68,0,0,0,.65-.77,16.33,16.33,0,0,0-.14-1.78C86.71,112.48,86.57,109.34,86.57,106.17Zm-13.32,6.55a9.28,9.28,0,0,1-3.6,1.57c-1.15.22-2.31.52-3.53.68A2.82,2.82,0,0,1,65,115c-1.66-.33-2.16-1-2.09-2.91a3.62,3.62,0,0,1,2.45-3.57,30.69,30.69,0,0,1,7.78-1.94,14,14,0,0,1,2.37-.18c.43,0,.65.09.65.53A6,6,0,0,1,73.25,112.72Z" transform="translate(0 0)"/><path class="cls-1" d="M148.56,69.43c-2.09-2.41-5-3-8.35-2.7a36.35,36.35,0,0,0-4.83.94,14.5,14.5,0,0,0-6.26,3.52,11.88,11.88,0,0,0-2.45,3.43c-.21-.25-.36-.44-.5-.62-2.23-2.52-5.26-3.3-8.86-2.82-1.37.19-2.66.52-4,.78a14.54,14.54,0,0,0-6.55,3.44,7.92,7.92,0,0,0-1.66,2.19,3.24,3.24,0,0,1-.79,1.09c-.22-1.18-.07-2.43-.29-3.54-.07-.56-.29-.59-.79-.5l-7.56,1.47a2.37,2.37,0,0,0-.94.26c.07.78.07,1.57.14,2.35a72.56,72.56,0,0,1,.36,8.06v28.59c0,1.22,0,1.08,1.16.86l8.06-1.57c1.59-.31,1.37,0,1.37-1.71v-24a10.55,10.55,0,0,1,.86-4.06,5.5,5.5,0,0,1,1.95-2.25A8.76,8.76,0,0,1,115,81.21,2.64,2.64,0,0,1,117.24,83a10.7,10.7,0,0,1,.57,4.57c.08,7.69.08,15.47.08,23.25,0,1.36-.15,1.25,1.22,1l7.92-1.54c1.59-.31,1.44-.06,1.44-1.65V85.72a24.08,24.08,0,0,1,.15-3.27A6.43,6.43,0,0,1,132,77.69a9.2,9.2,0,0,1,1.22-.53,7.43,7.43,0,0,1,4.9-.23c1.44.44,2,1.77,2.23,3.24a29,29,0,0,1,.22,3.63v22.82c0,1,0,1,1.08.8l8.28-1.61c1.08-.21,1.08-.21,1.08-1.22V91.78c0-5.26.14-10.54-.07-15.76A10.55,10.55,0,0,0,148.56,69.43Z" transform="translate(0 0)"/><path class="cls-1" d="M193,63.38a7.78,7.78,0,0,0-5-4.5,15.58,15.58,0,0,0-7-.23,20.72,20.72,0,0,0-4.9,1.31,13.48,13.48,0,0,0-5.47,3.51,16.1,16.1,0,0,0-1.8,2.59c-.14-1.27-.22-2.27-.29-3.26s-.07-.92-.93-.75l-7.78,1.51c-.86.17-1,.34-.86,1.1a28,28,0,0,1,.36,4.18c.14,3.14.21,6.37.21,9.61.07,11.72,0,23.54,0,35.28v.94c.07.77.07.77.87.62,2.8-.47,5.68-1,8.49-1.65,1-.2,1-.2,1-1.21v-9.21a2.7,2.7,0,0,1,.14-1.25c.51,0,.94.1,1.37.09,2.16-.28,4.4-.21,6.63-.71.65-.2,1.22-.46,1.87-.65a23.88,23.88,0,0,0,4.18-1.54,17.87,17.87,0,0,0,8.64-9.31A33,33,0,0,0,195,78.26c.07-2.25.07-4.55-.07-6.76A23.54,23.54,0,0,0,193,63.38ZM184.49,81a24,24,0,0,1-1.16,6.63,7.58,7.58,0,0,1-4.46,4.54,15.52,15.52,0,0,1-6.7,1.16,5,5,0,0,1-1.08-.15,1.37,1.37,0,0,1-1.15-1.65c.07-2.24,0-4.53,0-6.77H170c0-2.38-.07-4.67.07-7a15.2,15.2,0,0,1,.87-5,5.88,5.88,0,0,1,3.38-3.47,13.44,13.44,0,0,1,5.69-1.1,3.62,3.62,0,0,1,3.75,2.73,15.18,15.18,0,0,1,.64,4.41A48.61,48.61,0,0,1,184.49,81Z" transform="translate(0 0)"/><path class="cls-1" d="M210.91,39.31a7.09,7.09,0,0,0-3.31.21,8.35,8.35,0,0,0-2.6.65A6.12,6.12,0,0,0,201.62,44a8.67,8.67,0,0,0-.07,3,3.11,3.11,0,0,0,2.59,3.24,9,9,0,0,0,7.13-1.53,4.9,4.9,0,0,0,2.23-4c.07-.74,0-1.44,0-2.16A3.19,3.19,0,0,0,210.91,39.31Z" transform="translate(0 0)"/><path class="cls-1" d="M212.92,54.68a2.48,2.48,0,0,1,0-.72c0-.43-.14-.69-.64-.59-3.17.69-6.27,1.29-9.36,1.82-.58.11-.72.43-.72.93a3,3,0,0,1,0,.79V94.28c0,1.37-.15,1.4,1.29,1.12l8.07-1.57c1.51-.29,1.36-.19,1.36-1.63Z" transform="translate(0 0)"/><path class="cls-1" d="M251.37,46.92a12.4,12.4,0,0,0-5.18-.72,11.57,11.57,0,0,0-2.16.35,19.52,19.52,0,0,0-7.49,2.25,13.7,13.7,0,0,0-3.89,3.2,18.87,18.87,0,0,0-1.8,2.87c-.07-1.57-.21-2.91-.29-4.26,0-.58-.21-.75-.79-.57l-7.7,1.5c-.87.17-.87.17-.87,1.1v.29a70.36,70.36,0,0,1,.58,8.74c.07,8.63.07,17.34.07,26.06v3.38c-.07.59.14.69.79.57L231.5,90c.58-.12.86-.32.79-.88a3.53,3.53,0,0,1,0-.86c0-7.35,0-14.69-.07-22a21.69,21.69,0,0,1,.29-3.15,6.71,6.71,0,0,1,3.81-5.57,12.88,12.88,0,0,1,3-1,11.46,11.46,0,0,1,2.73-.24c2.16,0,3.68.87,4.18,3.07a11.39,11.39,0,0,1,.29,2.32V86c0,1.08,0,1.08,1.08.87L256,85.2c1.08-.21,1.08-.21,1.08-1.29V60.79a11.2,11.2,0,0,1,.07-1.52,17.55,17.55,0,0,0-1.08-7.35A7.86,7.86,0,0,0,251.37,46.92Z" transform="translate(0 0)"/><path class="cls-1" d="M274.77,70.53c.07-.38.22-.4.58-.4a19.09,19.09,0,0,0,4-.41c1.94-.38,3.81-.82,5.69-1.11a25.18,25.18,0,0,0,4.89-1.45,19.1,19.1,0,0,0,5.91-3.6,14.21,14.21,0,0,0,4.24-9,26.72,26.72,0,0,0-.28-10.46,7.36,7.36,0,0,0-3.17-4.64c-.51-.33-1-.6-1.59-1A37.23,37.23,0,0,0,298.89,32a11.79,11.79,0,0,0,.94-3.35c.14-1.11.07-1.17-.94-1l-8.42,1.63c-.43.09-.79.08-.87.75a26.48,26.48,0,0,1-2.73,7.73.7.7,0,0,1-.65.49c-.58.11-1.08.13-1.66.25a64.27,64.27,0,0,0-9.43,2.33,25.35,25.35,0,0,0-4.75,2.22,11.49,11.49,0,0,0-4.18,4.13,12.59,12.59,0,0,0-1.73,5.16,29.38,29.38,0,0,0,0,9.36c.44,2.36,1.16,4.74,3.1,6.16a.53.53,0,0,1,.07.86A11.46,11.46,0,0,0,266,78a4.4,4.4,0,0,0,2.88,3A9.37,9.37,0,0,0,267,87.38c.22,3.2,1.8,5.05,4.83,5.61a12.32,12.32,0,0,0,4.53.27c2.09-.26,4.25-.32,6.34-.73s3.82-1.17,5.76-1.69a16.36,16.36,0,0,0,4.9-2.39,9.62,9.62,0,0,0,4.39-6.33,13.18,13.18,0,0,0-.07-6.25,5.31,5.31,0,0,0-3.75-3.81,13.05,13.05,0,0,0-5.83,0c-3.17.55-6.34,1.16-9.5,1.78-.65,0-1.3.18-1.95.23a1.88,1.88,0,0,1-2.3-2.07A10,10,0,0,1,274.77,70.53Zm.07-18c.58-2.77,1.51-3.75,4.32-4.87a14.66,14.66,0,0,1,6.92-1.13,3.63,3.63,0,0,1,3.74,3.74,24.06,24.06,0,0,1,0,3.89c-.36,3.6-2.16,5.53-5.76,6.66a15.87,15.87,0,0,1-1.87.37,14.28,14.28,0,0,1-2.88.41c-3-.2-3.89-1.55-4.47-3.81A12.94,12.94,0,0,1,274.84,52.51Zm1.51,29.59a1.82,1.82,0,0,1,1.52-1.3c.86-.1,1.72-.34,2.88-.56,1.65-.47,3.6-.56,5.47-.92,1.3-.25,2.09.24,2.3,1.21A3.17,3.17,0,0,1,287,83.92a7.38,7.38,0,0,1-2.73,1.25,23.57,23.57,0,0,1-5.4.83,3.62,3.62,0,0,1-1.3-.18A1.92,1.92,0,0,1,276,83.61,9.81,9.81,0,0,1,276.35,82.1Z" transform="translate(0 0)"/><path class="cls-1" d="M67.6,30.8a11.83,11.83,0,0,0,1,4.15c.63,1.25,1.51,1.64,3.08,1.34l2-.4a4,4,0,0,0,2.51-1.77,8.56,8.56,0,0,0,1.06-3.58,22.47,22.47,0,0,0,.35-5.34l0-.15v-.16c0-.28,0-.56,0-.85s0-.78,0-1.16v-.12A13.54,13.54,0,0,0,77,18.64c-.21-.68-.64-1.39-2.22-1.44h-.1a6.78,6.78,0,0,0-1.72.16c-.52.1-1,.22-1.54.35-2.12.5-2.88,1.27-3.46,3.45a17.2,17.2,0,0,0-.4,2.78l-.08.86a29.87,29.87,0,0,0,.09,5.08Zm1.84-6.2.08-.86a18.94,18.94,0,0,1,.33-2.42c.36-1.33.41-1.34,1.67-1.64.46-.11.94-.23,1.41-.32a4.76,4.76,0,0,1,1.24-.13h.14c.64,0,.68.14.72.28a11.26,11.26,0,0,1,.49,3.59v.16c0,.41,0,.84,0,1.34,0,.22,0,.45,0,.66v.27l0,.26a21,21,0,0,1-.35,4.87,7.33,7.33,0,0,1-.65,2.54,1.43,1.43,0,0,1-.93.68l-2,.4c-.83.16-1,.05-1.24-.5a10,10,0,0,1-.82-3.51l-.07-.93A28.23,28.23,0,0,1,69.44,24.6Z" transform="translate(0 0)"/><path class="cls-1" d="M3.93,54.67a14.9,14.9,0,0,0,7.86,6.57,24.72,24.72,0,0,0,11.5,1.08c1.5-.19,2.88-.4,4.2-.66A43.52,43.52,0,0,0,37,58.73c6.57-2.95,11-7.25,13.45-13.13.21-.49.41-1,.59-1.48.16.4.33.81.51,1.21A13.07,13.07,0,0,0,60.82,53a23.64,23.64,0,0,0,10.13,0h0l2.2-.39a35.11,35.11,0,0,0,7.37-2.17,24.4,24.4,0,0,0,9.62-7.27C93.28,39.28,94.5,35,95.35,31a51,51,0,0,0,.75-10.49A33.14,33.14,0,0,0,94.82,10.4a14.36,14.36,0,0,0-5.14-7.73C85.9,0,81.48-.13,77.66.05a14,14,0,0,0-2.18.28c-.56.11-1.12.24-1.74.39L72.68,1c-.69.09-1.38.2-2.06.33a31.45,31.45,0,0,0-8.88,3.15,22.47,22.47,0,0,0-9,8.66,20.71,20.71,0,0,0-.89-3.34,13.45,13.45,0,0,0-7.67-8l-.13-.05A21.69,21.69,0,0,0,36.26.54,43.58,43.58,0,0,0,26.45,1.6a13.8,13.8,0,0,0-1.87.52,4.3,4.3,0,0,1-.64.18,33.06,33.06,0,0,0-9.58,4A25.86,25.86,0,0,0,3.85,17.45,30.34,30.34,0,0,0,.44,29.54,66.6,66.6,0,0,0,.61,43.8,28,28,0,0,0,3.93,54.67ZM2.43,29.31A28.3,28.3,0,0,1,5.57,18.13,23.33,23.33,0,0,1,15.05,8a30.84,30.84,0,0,1,9-3.73,7,7,0,0,0,.85-.24,12.47,12.47,0,0,1,1.6-.45,42.51,42.51,0,0,1,9.37-1,20.42,20.42,0,0,1,7.24,1.08l.09,0A11.92,11.92,0,0,1,50,10.78a23.62,23.62,0,0,1,1.1,9.92,4.35,4.35,0,0,1-2.53,3.75c1.4.18,2.15,1.15,2.3,2.94v.11c0,.69.07,1.41.1,2.14,0-1.4.09-2.78.16-4.14l0-.19a30.16,30.16,0,0,1,2-8.71A20.22,20.22,0,0,1,62.4,6.21,29.06,29.06,0,0,1,70.62,3.3c.66-.13,1.33-.24,2-.32l1.26-.29c.53-.13,1.06-.26,1.59-.36a11.49,11.49,0,0,1,1.89-.24c3.52-.17,7.59,0,11,2.34a12.77,12.77,0,0,1,4.55,6.91,31.39,31.39,0,0,1,1.2,9.54A48.79,48.79,0,0,1,93.39,31c-.79,3.72-1.9,7.61-4.71,11.14a21.81,21.81,0,0,1-8.62,6.5,32.53,32.53,0,0,1-6.91,2h0c-.72.14-1.43.27-2.14.38h0a22.08,22.08,0,0,1-9.38,0,11.6,11.6,0,0,1-8.26-6.87A32.57,32.57,0,0,1,51,34c0-.42,0-.84-.06-1.27a40.92,40.92,0,0,1-.24,4.39,29.62,29.62,0,0,1-2.13,8c-2.21,5.25-6.18,9.11-12.13,11.77a40.69,40.69,0,0,1-9,2.78c-1.28.25-2.61.46-4.06.64a22.91,22.91,0,0,1-10.65-1,13.52,13.52,0,0,1-7.1-6A26.1,26.1,0,0,1,2.59,43.16,64.75,64.75,0,0,1,2.43,29.31Z" transform="translate(0 0)"/><path class="cls-1" d="M19.93,40.49c.51,1.94,1.21,3,2.33,3.51a6.1,6.1,0,0,0,3,.41,16.43,16.43,0,0,0,2.57-.29l.86-.19A14.85,14.85,0,0,0,32,42.71a3.2,3.2,0,0,0,1-.82L26.3,43.18c-3.25.64-3.93-1.33-3.93-3.1V33.17a4.37,4.37,0,0,1,3.93-4.63l10-1.94a2.62,2.62,0,0,1-1-.54,3.43,3.43,0,0,1-.88-3V23l0-.1a7.94,7.94,0,0,0-.13-2v0a2.48,2.48,0,0,0-2.08-2.15,12.05,12.05,0,0,0-4.63.05c-.42.09-.86.19-1.31.31a13.72,13.72,0,0,0-3.5,1.49,6,6,0,0,0-2.26,2.77l-.07.16a15.73,15.73,0,0,0-1.15,5.32c0,.4-.06.78-.1,1.16-.06.56-.1,1-.11,1.5,0,.63.05,1.27.07,1.91A32.9,32.9,0,0,0,19.93,40.49Zm1.32-10.67c0-.4.08-.8.11-1.22a13.4,13.4,0,0,1,1-4.61l.08-.21a3.41,3.41,0,0,1,1.28-1.54,11.35,11.35,0,0,1,2.82-1.17l1.13-.27a10.13,10.13,0,0,1,3.83-.06c.66.16.8.36.91.85a6.66,6.66,0,0,1,.11,1.51l0,.24a7.08,7.08,0,0,0,.08,2L26.3,26.54A7.15,7.15,0,0,0,21.23,30,1.49,1.49,0,0,1,21.25,29.82Z" transform="translate(0 0)"/><path class="cls-1" d="M71.39,91.49a9.19,9.19,0,0,0-1.84.17,12,12,0,0,0-1.64.45,1.63,1.63,0,0,0-1.19,1.44c-.06.65-.12,1.26-.12,1.82v2.88c1.14-.28,2.27-.51,3.35-.72l3.21-.61A21.27,21.27,0,0,0,72.51,92C72.43,91.74,72.36,91.46,71.39,91.49Zm-1.44,4-1.35.27V95c0-.33,0-.69.06-1.1.31-.09.61-.16.89-.22a8.69,8.69,0,0,1,1.18-.13,17,17,0,0,1,.29,1.8Z" transform="translate(0 0)"/><path class="cls-1" d="M66.05,111.36l-.09,0s0,.27,0,.27a1.69,1.69,0,0,0,0,.32h0l.14,0,.18,0c.34,0,.68-.1,1-.17l1.12-.23,1.21-.25a5.78,5.78,0,0,0,2.26-1,3.93,3.93,0,0,0,.74-.6c-.76.11-1.44.22-2.07.34A23.17,23.17,0,0,0,66.05,111.36Z" transform="translate(0 0)"/><path class="cls-1" d="M305,54.34a31.42,31.42,0,0,0-.41-12.46,12.55,12.55,0,0,0-2.87-5.31c.58-1,1.14-2.1,1.66-3.21a17.9,17.9,0,0,0,1.42-5c.12-.94.4-3.14-1.24-4.7a5.13,5.13,0,0,0-4.66-1l-8.65,1.68a7,7,0,0,0-5.59,6,13,13,0,0,1-1,3.37A64.09,64.09,0,0,0,274.48,36a30.5,30.5,0,0,0-5.86,2.71,17.89,17.89,0,0,0-6.51,6.39,18.41,18.41,0,0,0-1.66,3.47,11.3,11.3,0,0,0-6.68-6.53,17,17,0,0,0-6.83-1,11.6,11.6,0,0,0-1.83.21l-.76.16-.2.05q-1.12.15-2.25.36a22.73,22.73,0,0,0-7.22,2.63c-.38.22-.86.52-1.4.88A5,5,0,0,0,230,45l-.41.09-7.49,1.46a7,7,0,0,0-5,3.52,4.66,4.66,0,0,0-.39-.49,10.85,10.85,0,0,0,1.82-5.36,18.36,18.36,0,0,0,0-2.08c0-.16,0-.32,0-.52v-.16a7.09,7.09,0,0,0-5.74-7.15,11.23,11.23,0,0,0-4.43.05c-.28,0-.56.12-.85.19l-.34.05c-.29,0-.58.09-.87.15a10,10,0,0,0-3,1.06,12.71,12.71,0,0,0-6.48,7.75,12.23,12.23,0,0,0-.28,4.43l0,.22a7.58,7.58,0,0,0,1.89,4.93,6.93,6.93,0,0,0-1.24,4v2.69a11.37,11.37,0,0,0-7-5.83,19.89,19.89,0,0,0-8.83-.35q-.71.07-1.41.21a31.53,31.53,0,0,0-4.7,1.4A22,22,0,0,0,171,57.27a5.6,5.6,0,0,0-3.4-.22l-7.78,1.51a7.24,7.24,0,0,0-4.66,2.88,6.47,6.47,0,0,0-1.1,5.2,10.52,10.52,0,0,1,.18,1.55,12.08,12.08,0,0,0-1.71-2.53c-2.74-3.15-6.63-4.46-11.91-4-.76.08-1.57.2-2.47.38s-1.95.42-3,.66l-.16,0a20.42,20.42,0,0,0-8.52,4.64,15,15,0,0,0-9-1.24c-.54.07-1.08.17-1.61.27l-1.41.29-1.27.26a18.59,18.59,0,0,0-6.85,2.94,5.48,5.48,0,0,0-3.23-.26l-7.56,1.47-.47.08a7.07,7.07,0,0,0-2.71,1.14l-3,2.12.31,3.34c0,.3,0,.61.06.95s0,.93.08,1.35L90,81.63a11.26,11.26,0,0,0-8.38-6.75,23.5,23.5,0,0,0-7.41-.3c-1.51.18-3.3.41-5.15.77a35.93,35.93,0,0,0-8.16,2.56,26.15,26.15,0,0,0-6.58,4.17,19.12,19.12,0,0,0-2.91,3.29,18.3,18.3,0,0,0-1.08-3c-2.56-5.24-7.39-7.9-14.28-7.91a35.71,35.71,0,0,0-4.32.17c-1.29.1-2.55.27-3.67.42l-.29,0-.76.13a33,33,0,0,0-3.6,1l-1.07.33a33.27,33.27,0,0,0-8,3.23,23,23,0,0,0-5.11,3.63,28.15,28.15,0,0,0-8,14.26,52.57,52.57,0,0,0-1,8.17l-.08,1.06a35.37,35.37,0,0,0,0,4.73l.06,1.05.07,1.17a47.26,47.26,0,0,0,.57,5.44,24.76,24.76,0,0,0,3.93,10.25,15.1,15.1,0,0,0,9.34,6.17,30.48,30.48,0,0,0,12.07.06l.1,0a42.23,42.23,0,0,0,5.33-1.28,28.84,28.84,0,0,0,6.19-2.39,26.81,26.81,0,0,0,9.14-7.5c.59-.78,1.13-1.54,1.61-2.28a11.53,11.53,0,0,0,1.81,2.89l.16.16c2.82,2.83,6.75,4,11.67,3.33.86-.1,1.76-.24,2.76-.43s2.27-.49,3.59-.8a22.91,22.91,0,0,0,6.39-2.77,6,6,0,0,0,3.19.13l8.28-1.61a7.05,7.05,0,0,0,4.73-3.4,4.43,4.43,0,0,0,4.74,1.56l8.58-1.67.79-.14a6.83,6.83,0,0,0,4.07-2.4,6.69,6.69,0,0,0,1.53-4.69V87.93a4.4,4.4,0,0,1,.23-1.39,3.25,3.25,0,0,1,.89-.31,3.64,3.64,0,0,1,.82-.06,12,12,0,0,1,.09,1.92v.5c.08,7.67.08,15.56.08,23.18v.32a4.38,4.38,0,0,0,5.65,4.83l8.48-1.65.82-.15a6.92,6.92,0,0,0,4.08-2.39,6.82,6.82,0,0,0,1.56-4.75V84.74a21.32,21.32,0,0,1,.09-2.47,1.06,1.06,0,0,1,0-.14l.07,0c.1,0,.21-.08.39-.15a4,4,0,0,1,.61-.17,2.6,2.6,0,0,1,.73,0,25.74,25.74,0,0,1,.18,3v22.82c0,3.77,2.27,5.57,6.08,4.83l8.28-1.61a7.39,7.39,0,0,0,4.65-2.73c0,2.21,0,4.42,0,6.62v1.16l0,.23c.31,3.28,2.46,4.86,5.72,4.22h0c1.44-.24,2.91-.51,4.37-.79s2.94-.59,4.25-.88a7,7,0,0,0,6-7.18v-4.65c.86-.08,1.75-.19,2.69-.37l.72-.15.08,0,.2-.06c.43-.13.84-.28,1.33-.46l.5-.18a28.65,28.65,0,0,0,5.12-1.9,24.46,24.46,0,0,0,11.61-12.38v4.25a5,5,0,0,0,1.58,4.14c1.61,1.32,3.56.95,4.72.72l8.44-1.64a7.18,7.18,0,0,0,4.42-2.48,6.57,6.57,0,0,0,1-1.68,3.94,3.94,0,0,0,.81,1.07,4.88,4.88,0,0,0,4.45,1L231.5,95a7.25,7.25,0,0,0,4.44-2.75,6.6,6.6,0,0,0,1.34-4.5c0-.16,0-.31,0-.46,0-7.24,0-14.72-.07-22a19.26,19.26,0,0,1,.25-2.55c.05-.39.12-.57.11-.59l.12-.07a6.44,6.44,0,0,1,1.65-.56l.18,0,.2-.05a8.44,8.44,0,0,1,.89,0h.76a7,7,0,0,1,.17,1.26V86.92c0,3.87,2.21,5.65,6.08,4.9L256,90.2a7,7,0,0,0,6.08-7.26v-.73a9.85,9.85,0,0,0,.6.93,14.86,14.86,0,0,0-.65,5.54c.34,5.11,3.18,8.43,7.95,9.32a16.79,16.79,0,0,0,6.05.32c.71-.09,1.43-.15,2.19-.22a42.43,42.43,0,0,0,4.49-.57h.06l.13,0c1.32-.31,2.52-.69,3.75-1.08.72-.24,1.45-.47,2-.63a21.5,21.5,0,0,0,6.76-3.19,16.08,16.08,0,0,0,7.22-10.42,17.85,17.85,0,0,0-.15-8.58,9,9,0,0,0-4.68-5.77c.33-.26.64-.54.95-.82A20.14,20.14,0,0,0,305,54.34ZM86.35,121.17l-8.28,1.61a3.37,3.37,0,0,1-3-.52,19.71,19.71,0,0,1-6.76,3.19c-1.22.29-2.34.55-3.45.77-1,.18-1.81.32-2.61.41-4.36.55-7.83-.42-10.28-2.89l-.12-.12a9.23,9.23,0,0,1-2.12-4.47,21,21,0,0,1,.18-8.51,13.37,13.37,0,0,1,5.91-8.07l-.09,0-1.53.27-.29,0c-2.2.43-3.53-.51-3.73-2.64,0-.09,0-.2,0-.33C50.08,99,50,98.1,50,97.23A4.36,4.36,0,0,1,46.18,101l-8.86,1.72a3.28,3.28,0,0,1-3-.51,3.16,3.16,0,0,1-.84-2.68c0-.4,0-.81,0-1.22,0-.83,0-1.62,0-2.37-.11-2.94-2.11-3.53-3.8-3.51a23.24,23.24,0,0,0-3.1.39c-.35.07-.7.14-1.05.23a8.46,8.46,0,0,0-3.7,1.8l-.1.09a5.52,5.52,0,0,0-1.6,2.49,20.23,20.23,0,0,0-1,5.37V103a37.23,37.23,0,0,0-.13,3.89,32.78,32.78,0,0,0,1,8,4.3,4.3,0,0,0,4.43,3.45,11.05,11.05,0,0,0,2.46-.14,6.25,6.25,0,0,0,1.21-.36c.31-.13.7-.27,1.08-.41a9.29,9.29,0,0,0,1.34-.57l.15-.08a9.67,9.67,0,0,0,3.91-4.23l.05-.11c.06-.13.11-.27.19-.43l.83-1.82.68-.13.88-1.05,2,.87,4.06,1.71,4,1.67c1.37.55,2.47,2,1.49,4.47a26.44,26.44,0,0,1-3.46,5.81,24.57,24.57,0,0,1-8.31,6.77,26.42,26.42,0,0,1-5.7,2.19,42.13,42.13,0,0,1-5.16,1.24h-.06a28.46,28.46,0,0,1-11.33,0,13.6,13.6,0,0,1-8.43-5.57,23.07,23.07,0,0,1-3.65-9.58,46.66,46.66,0,0,1-.54-5.23l-.08-1.17-.05-1a33,33,0,0,1,0-4.46l.08-1.08a52.06,52.06,0,0,1,1-7.85,25.65,25.65,0,0,1,7.3-13A19.9,19.9,0,0,1,15,81.53a31,31,0,0,1,7.46-3l1.15-.35A32.17,32.17,0,0,1,27,77.23l.67-.12.26,0c1.14-.15,2.33-.31,3.56-.4a32.67,32.67,0,0,1,4.09-.18c6.29,0,10.64,2.39,12.92,7a19.23,19.23,0,0,1,1.62,6.68,35.76,35.76,0,0,1,0,3.58,16.15,16.15,0,0,1,5.31-10.32,23.6,23.6,0,0,1,6-3.76A32.88,32.88,0,0,1,69,77.35c1.79-.35,3.53-.57,5-.75a21,21,0,0,1,6.77.28c4.53.94,7.33,4,8.27,9a38.56,38.56,0,0,1,.48,6.71c-.07,4.35-.07,8.7,0,13,0,3.13.14,6.25.28,9.27v.08a16.17,16.17,0,0,1,.14,1.92A4.47,4.47,0,0,1,86.35,121.17ZM32.9,103.88a4.89,4.89,0,0,0,4.42.88L46.18,103a8,8,0,0,0,2.33-.82,3.91,3.91,0,0,0,2.31,2.52A14.68,14.68,0,0,0,48,110.55l-.12.56-3.2-1.35-.25-.1-4-1.71L37,106.52l-1.42,1.68-1.1.21-1.38,3c-.09.19-.16.36-.2.46h0A6.79,6.79,0,0,1,30.11,115l-.2.11a7.17,7.17,0,0,1-1,.39c-.42.16-.85.31-1.15.44a4.12,4.12,0,0,1-.8.24,9.2,9.2,0,0,1-2.05.1c-1.56,0-2.41-.7-2.92-2.35a30.79,30.79,0,0,1-1-7.48c0-1.25,0-2.55.12-3.72v-.14a18.26,18.26,0,0,1,.84-4.78,2.9,2.9,0,0,1,.88-1.41l.12-.12a6.27,6.27,0,0,1,2.62-1.21q.48-.12,1-.21a21.57,21.57,0,0,1,2.78-.36c1.8,0,2.09.94,2.13,2,0,.67,0,1.42,0,2.22,0,.4,0,.79,0,1.18A4.65,4.65,0,0,0,32.9,103.88ZM154,86.7c0,1.5,0,3,0,4.49V104c0,2.66-1.37,4.28-4.08,4.8l-8.28,1.61c-2.71.53-4.08-.55-4.08-3.21V84.38a27.38,27.38,0,0,0-.2-3.28c-.07-.46-.23-1.12-.59-1.23a4.1,4.1,0,0,0-2.12-.11,7,7,0,0,0-.94.26c-.34.13-.53.2-.73.3a2.59,2.59,0,0,0-1.41,2,22.83,22.83,0,0,0-.11,2.79v23.24a4.53,4.53,0,0,1-1,3.23,4.46,4.46,0,0,1-2.66,1.52l-.8.14-8.5,1.66a3.16,3.16,0,0,1-2.68-.48,3.21,3.21,0,0,1-1-2.72v-.32c0-7.64,0-15.54-.08-23.22v-.47a7.52,7.52,0,0,0-.34-3c-.2-.46-.28-.47-.37-.48l-.14,0a5.6,5.6,0,0,0-4.08.83,1.5,1.5,0,0,0-.53.56,7.17,7.17,0,0,0-.57,2.71v24.52a4.29,4.29,0,0,1-3.6,4.68l-.77.14-8.6,1.68c-1.35.26-3.62.17-3.62-3.39V87.37a71.43,71.43,0,0,0-.35-7.82c0-.42,0-.86-.07-1.29s0-.7-.07-1l-.18-2L93.36,74a4.63,4.63,0,0,1,1.81-.76l.42-.07,7.61-1.48a3.05,3.05,0,0,1,3,.71A17.1,17.1,0,0,1,113.28,69l1.3-.26,1.38-.29c.5-.1,1-.18,1.51-.26a12.59,12.59,0,0,1,9.06,1.77,8.78,8.78,0,0,1,.87-.85,18.07,18.07,0,0,1,7.8-4.36l.12,0c1-.23,1.93-.46,2.87-.64s1.58-.28,2.29-.35c4.68-.41,8.1.73,10.49,3.48a13,13,0,0,1,3,8.1C154.09,79.11,154.06,83,154,86.7Zm44-8.93a36.91,36.91,0,0,1-2.5,12.78A21.92,21.92,0,0,1,185,101.87a26.35,26.35,0,0,1-4.75,1.75c-.23.07-.47.17-.72.26s-.73.27-1.12.38l-.12,0-.66.14a32.26,32.26,0,0,1-4.08.46l-.61,0v6.91a4.45,4.45,0,0,1-4,4.79c-1.35.3-2.8.6-4.25.88s-2.89.54-4.32.78h0c-2.27.44-3.56-.49-3.78-2.78v-1.21q0-5.86,0-11.75c0-7.72,0-15.71,0-23.51,0-3.22-.07-6.41-.21-9.49l0-.86a17,17,0,0,0-.26-2.85,4.22,4.22,0,0,1,.68-3.42,4.73,4.73,0,0,1,3.12-1.87l7.78-1.51a3.12,3.12,0,0,1,3.1.67,18.69,18.69,0,0,1,4.87-2.61,28.16,28.16,0,0,1,4.34-1.3c.42-.08.83-.14,1.25-.19a18.46,18.46,0,0,1,8.12.3,10,10,0,0,1,6.43,5.75,26.27,26.27,0,0,1,2.17,9C198.06,72.82,198.08,75.12,198,77.77Zm18.49-33.36a8.53,8.53,0,0,1-2.88,6,2.8,2.8,0,0,1,2.31,3V91.93a4.52,4.52,0,0,1-1,3.22,4.68,4.68,0,0,1-3,1.61l-8.44,1.64a3.77,3.77,0,0,1-3.3-.4,3.35,3.35,0,0,1-1-2.82V57.5c0-.13,0-.25,0-.37V56.7a4.54,4.54,0,0,1,2.31-4,5.47,5.47,0,0,1-3-5l0-.31a10.27,10.27,0,0,1,.21-3.69A10,10,0,0,1,204,37.55a7.54,7.54,0,0,1,2.29-.81l.79-.13.46-.08q.4-.11.81-.18A9.39,9.39,0,0,1,212,36.3a5.55,5.55,0,0,1,4.48,5.62V42c0,.21,0,.42,0,.62A13.13,13.13,0,0,1,216.49,44.41Zm43.64,14.36v.17l0,.18a8.8,8.8,0,0,0,0,1.09V83.32c0,2.75-1.33,4.34-4.08,4.88l-8.35,1.62c-2.75.53-4.08-.54-4.08-3.29V62.2a8.75,8.75,0,0,0-.23-1.75c-.17-.75-.5-1.16-1.77-1.18l-.58,0a8.48,8.48,0,0,0-1.24.08l-.27.07-.11,0a9.06,9.06,0,0,0-2.2.74,2.87,2.87,0,0,0-1.66,2.63,19.15,19.15,0,0,0-.27,2.78c.07,7.32.07,14.8.07,22,0,.16,0,.33,0,.49a4.22,4.22,0,0,1-.83,3.05A4.71,4.71,0,0,1,231.5,93l-8.86,1.72a3.23,3.23,0,0,1-2.95-.62,3,3,0,0,1-.84-2.51V88.31c0-8.56,0-17.41-.07-26a65.93,65.93,0,0,0-.56-8.41l0-.17v-.47a4.37,4.37,0,0,1,3.87-4.69l7.56-1.47L230,47a2.94,2.94,0,0,1,2.95.94,21.88,21.88,0,0,1,2.51-1.7,20.19,20.19,0,0,1,6.47-2.34c.73-.14,1.47-.25,2.21-.36l.38-.08.62-.13a8.14,8.14,0,0,1,1.53-.17,15.17,15.17,0,0,1,6.17.86,10,10,0,0,1,6.07,6.36A20.09,20.09,0,0,1,260.13,58.77Zm37.45,6.86a21.67,21.67,0,0,1-4.39,3.1,9.06,9.06,0,0,1,2.08.39,7.63,7.63,0,0,1,5.29,5.39,15.91,15.91,0,0,1,.12,7.65,13.56,13.56,0,0,1-6.09,8.78,19.7,19.7,0,0,1-6,2.87c-.7.19-1.47.44-2.25.69-1.13.35-2.29.73-3.53,1h-.11a39.46,39.46,0,0,1-4.3.54c-.75.07-1.5.13-2.24.23a15,15,0,0,1-5.44-.31c-4.08-.76-6.42-3.47-6.71-7.83a12.79,12.79,0,0,1,.93-5.78,7.47,7.47,0,0,1-1.79-2.88l-.05-.14a13.27,13.27,0,0,1-.38-5,13.56,13.56,0,0,1,1.44-5.18,13.37,13.37,0,0,1-2.63-6.39,32.34,32.34,0,0,1,0-10.3A15.9,15.9,0,0,1,263.75,46a15.12,15.12,0,0,1,5.58-5.48A28.09,28.09,0,0,1,274.74,38a65.47,65.47,0,0,1,9.82-2.43l.33-.06a18.78,18.78,0,0,0,1.74-5.25,4.45,4.45,0,0,1,3.61-3.86l8.65-1.68a3.43,3.43,0,0,1,3.15.57,3.56,3.56,0,0,1,.76,3.21,15.31,15.31,0,0,1-1.22,4.36,43.81,43.81,0,0,1-2.42,4.44,10.16,10.16,0,0,1,3.49,5.52A29.49,29.49,0,0,1,303,54.44,17.81,17.81,0,0,1,297.58,65.63Z" transform="translate(0 0)"/><path class="cls-1" d="M180.92,72.44l-.06-.19c-.13-.47-.35-1-1.51-1a9.45,9.45,0,0,0-2.17.18,10.82,10.82,0,0,0-2.17.66,2,2,0,0,0-1.28,1.27,12.34,12.34,0,0,0-.65,3.95c-.1,1.7-.09,3.34-.08,5.07,0,.6,0,1.19,0,1.8v3h0c0,1,0,2.06,0,3.1a17.55,17.55,0,0,0,3.2-.26,9.14,9.14,0,0,0,2-.62A3.75,3.75,0,0,0,180.56,87a21.2,21.2,0,0,0,.93-5.64,44.51,44.51,0,0,0-.07-5.24A13.18,13.18,0,0,0,180.92,72.44Zm-1.42,9.22a19.58,19.58,0,0,1-.79,5c-.18.48-.22.58-1.05.94a6.55,6.55,0,0,1-1.5.46,10.62,10.62,0,0,1-1.15.15V83.8c0-.51,0-1.81,0-1.81,0-1.69,0-3.29.08-5a11.69,11.69,0,0,1,.43-3.08,9.38,9.38,0,0,1,1.67-.5,7.14,7.14,0,0,1,1.72-.14H179l0,.14a12.07,12.07,0,0,1,.41,3.26A44.23,44.23,0,0,1,179.5,81.66Z" transform="translate(0 0)"/><path class="cls-1" d="M285.29,49.56a10.64,10.64,0,0,0-3.08.16,12.3,12.3,0,0,0-2.41.73c-1.73.69-1.73.69-2,2.13a9.67,9.67,0,0,0,0,4c.38,1.48.62,1.83,2.29,1.94a1.86,1.86,0,0,0,.54-.05l.49-.1.66-.15.54-.09L283,58l.47-.08.21-.05c2.47-.78,2.95-1.56,3.15-3.49a22.73,22.73,0,0,0,0-3.4C286.77,50.11,286.52,49.66,285.29,49.56Zm-.44,5c-.07.62-.14.82-.12.82h0a4.23,4.23,0,0,1-1.25.53l-.39.06-.66.11h0l-.66.11-.72.16-.47.11a5,5,0,0,1-.64-.08,5.73,5.73,0,0,1-.19-.62,7.92,7.92,0,0,1,0-3.18.43.43,0,0,0,0-.11l.48-.19a10.45,10.45,0,0,1,2-.6,8.73,8.73,0,0,1,2.55-.13h.07A18.87,18.87,0,0,1,284.85,54.6Z" transform="translate(0 0)"/></g></g></svg>